<svg width="40" height="40" viewBox="0 0 40 40" fill="none" xmlns="http://www.w3.org/2000/svg">
  <rect width="40" height="40" rx="2" fill="#F7C1CC"/>
  <path d="M20 12.2C16.9 12.2 14.4 14.7 14.4 17.8C14.4 19.8 15.4 21.4 17 22.7C18 23.5 18.8 24.7 19.1 26H20.9C21.2 24.7 22 23.5 23 22.7C24.6 21.4 25.6 19.8 25.6 17.8C25.6 14.7 23.1 12.2 20 12.2Z" stroke="black" stroke-width="1.8" stroke-linejoin="round"/>
  <path d="M18 28H22" stroke="black" stroke-width="1.8" stroke-linecap="round"/>
  <path d="M20 8.8V6.8" stroke="black" stroke-width="1.8" stroke-linecap="round"/>
  <path d="M11.5 11.8L10.1 10.4" stroke="black" stroke-width="1.8" stroke-linecap="round"/>
  <path d="M28.5 11.8L29.9 10.4" stroke="black" stroke-width="1.8" stroke-linecap="round"/>
  <path d="M8.8 20H6.8" stroke="black" stroke-width="1.8" stroke-linecap="round"/>
  <path d="M33.2 20H31.2" stroke="black" stroke-width="1.8" stroke-linecap="round"/>
  <path d="M11.5 28.2L10.1 29.6" stroke="black" stroke-width="1.8" stroke-linecap="round"/>
  <path d="M28.5 28.2L29.9 29.6" stroke="black" stroke-width="1.8" stroke-linecap="round"/>
</svg>
